<?xml version="1.0" standalone="no"?>
<!DOCTYPE svg PUBLIC "-//W3C//DTD SVG 20010904//EN"
 "http://www.w3.org/TR/2001/REC-SVG-20010904/DTD/svg10.dtd">
<svg version="1.0" xmlns="http://www.w3.org/2000/svg"
 width="660.000000pt" height="600.000000pt" viewBox="0 0 660.000000 600.000000"
 preserveAspectRatio="xMidYMid meet">
<metadata>
Created by potrace 1.15, written by Peter Selinger 2001-2017
</metadata>
<g transform="translate(0.000000,600.000000) scale(0.100000,-0.100000)"
fill="#000000" stroke="none">
<path d="M3295 5569 c-294 -15 -553 -78 -825 -199 -587 -261 -1059 -781 -1276
-1404 -38 -109 -27 -121 14 -16 21 52 44 104 51 115 l13 20 -7 -20 c-4 -11
-23 -65 -42 -120 -84 -244 -152 -668 -125 -785 7 -28 10 -12 15 79 13 203 47
400 103 593 30 102 101 289 116 303 8 7 9 4 3 -10 -102 -271 -177 -567 -174
-684 1 -20 9 14 19 74 82 503 307 948 643 1274 363 351 756 549 1262 636 152
26 170 27 360 21 244 -9 420 -40 648 -117 321 -107 576 -262 857 -523 203
-187 465 -607 545 -871 15 -49 31 -103 36 -120 6 -16 21 -79 34 -140 88 -407
56 -866 -90 -1285 -86 -247 -257 -536 -431 -730 -27 -30 -56 -64 -64 -75 -23
-31 117 94 160 142 72 82 60 42 -21 -67 -56 -77 -215 -236 -314 -315 -38 -31
-118 -88 -176 -128 -58 -40 -106 -76 -107 -81 0 -5 -33 -28 -74 -52 -100 -60
-76 -55 41 7 343 184 624 437 835 753 36 54 63 102 60 107 -3 5 -1 9 5 9 6 0
15 10 22 21 8 15 8 19 0 15 -6 -4 1 14 17 41 140 238 253 602 292 935 13 109
10 399 -4 391 -4 -3 -7 15 -5 41 2 25 1 46 -3 46 -5 0 -8 18 -8 40 0 66 -57
313 -102 445 -73 214 -219 501 -332 655 -22 30 -32 49 -24 42 27 -22 130 -178
197 -298 109 -195 192 -434 260 -739 28 -129 33 -125 15 15 -1 13 -5 47 -8 75
l-6 50 15 -55 c20 -78 33 -175 45 -330 16 -220 -11 -492 -82 -820 -29 -136
-161 -466 -181 -453 -5 3 -7 1 -4 -4 13 -21 -137 -267 -241 -398 -84 -105
-276 -298 -372 -375 -176 -140 -336 -236 -549 -330 -152 -66 -280 -106 -501
-155 l-65 -14 55 5 c30 3 116 21 190 39 74 19 146 37 160 40 l25 6 -25 -11
c-107 -47 -367 -104 -573 -126 -83 -8 -154 -18 -157 -21 -11 -12 272 7 385 26
285 49 596 166 844 318 207 127 485 372 623 548 203 259 358 566 433 856 21
78 13 88 -9 12 -9 -32 -21 -65 -27 -73 -9 -12 -10 -11 -4 5 13 36 34 119 60
225 14 58 29 114 35 125 19 39 30 180 30 373 0 388 -77 749 -224 1057 -179
376 -483 721 -851 969 -132 89 -409 224 -564 276 -293 96 -575 134 -876 119z
m2214 -3566 c-210 -390 -520 -712 -891 -927 -27 -16 -48 -25 -48 -22 0 3 21
18 48 33 117 69 333 242 463 372 183 184 293 328 410 535 29 52 55 93 57 91 2
-2 -16 -38 -39 -82z"/>
<path d="M3250 3430 c0 -5 9 -10 20 -10 19 0 20 -7 20 -190 0 -162 -2 -190
-15 -190 -8 0 -15 -4 -15 -10 0 -6 35 -10 85 -10 50 0 85 4 85 10 0 6 -7 10
-15 10 -13 0 -15 29 -15 200 l0 200 -75 0 c-43 0 -75 -4 -75 -10z"/>
<path d="M3610 3411 c-99 -20 -158 -109 -148 -222 13 -128 112 -198 239 -170
64 15 146 111 94 111 -8 0 -15 -4 -15 -9 0 -23 -54 -71 -86 -77 -85 -16 -117
27 -118 161 -1 130 29 185 102 185 39 0 92 -46 92 -79 0 -12 6 -21 14 -21 10
0 15 17 18 60 3 58 -5 73 -28 50 -6 -6 -24 -4 -49 5 -44 15 -62 16 -115 6z"/>
<path d="M1840 3396 c0 -10 9 -16 25 -16 l25 0 0 -170 0 -170 -25 0 c-14 0
-25 -4 -25 -10 0 -6 40 -10 100 -10 92 0 128 10 80 23 -18 5 -20 14 -20 82 l0
76 27 -3 c29 -3 35 -16 48 -101 9 -54 35 -77 90 -77 33 0 50 6 65 22 11 12 20
25 20 30 0 15 -28 8 -35 -9 -6 -17 -7 -17 -21 1 -8 11 -14 33 -14 49 0 39 -15
64 -52 83 l-31 16 40 18 c72 32 82 108 20 154 -25 18 -45 21 -173 24 -127 4
-144 2 -144 -12z"/>
<path d="M2305 3257 c-40 -40 -53 -92 -36 -149 16 -50 40 -74 91 -88 62 -17
129 -3 166 34 57 57 53 160 -7 210 -27 23 -40 26 -106 26 -72 0 -76 -1 -108
-33z m146 -14 c16 -41 8 -179 -12 -198 -20 -20 -48 -10 -60 22 -12 32 -12 145
1 177 14 37 57 36 71 -1z"/>
<path d="M2590 3275 c0 -8 6 -15 13 -15 8 0 43 -58 80 -130 55 -109 65 -135
60 -164 -12 -73 -78 -87 -78 -17 0 25 -4 31 -20 31 -29 0 -45 -19 -45 -52 0
-34 28 -51 84 -51 53 0 81 33 91 105 10 68 107 278 129 278 9 0 16 7 16 15 0
11 -12 15 -44 15 -48 0 -67 -13 -40 -28 15 -8 14 -15 -9 -66 -14 -31 -30 -56
-34 -56 -8 0 -63 102 -63 115 0 3 7 5 15 5 8 0 15 7 15 15 0 12 -16 15 -85 15
-69 0 -85 -3 -85 -15z"/>
<path d="M2972 3274 c-27 -19 -29 -60 -3 -74 34 -18 51 -12 51 18 0 38 13 54
41 50 21 -3 24 -9 27 -50 3 -47 2 -48 -25 -48 -39 -1 -109 -34 -122 -58 -15
-29 -14 -46 7 -72 26 -33 101 -34 134 -3 24 22 24 22 41 3 35 -41 127 -17 127
33 0 21 -19 22 -26 2 -14 -36 -24 -9 -24 65 0 84 -15 132 -45 144 -34 13 -160
6 -183 -10z"/>
<path d="M3872 3274 c-43 -30 -19 -84 38 -84 17 0 20 4 15 20 -9 28 12 60 39
60 27 0 36 -17 36 -64 0 -32 -2 -34 -45 -39 -89 -13 -126 -50 -111 -111 12
-50 128 -56 155 -8 8 15 11 14 28 -5 32 -39 101 -31 121 12 15 33 15 35 -2 35
-8 0 -16 -7 -20 -15 -3 -8 -10 -15 -16 -15 -6 0 -10 35 -10 90 0 83 -2 93 -25
115 -21 22 -33 25 -102 25 -55 0 -85 -5 -101 -16z"/>
<path d="M4217 3279 c-11 -6 -25 -27 -33 -45 -25 -60 4 -95 114 -135 25 -9 32
-17 30 -33 -2 -16 -11 -22 -35 -24 -41 -4 -71 12 -79 43 -11 44 -34 30 -34
-20 0 -25 5 -45 10 -45 6 0 10 5 10 11 0 5 5 7 11 3 6 -4 28 -10 48 -15 84
-19 161 22 161 86 0 41 -26 64 -99 90 -43 15 -57 25 -59 42 -7 46 88 40 103
-6 11 -36 33 -24 37 19 2 28 0 40 -9 40 -7 0 -13 -5 -13 -10 0 -7 -6 -7 -19 0
-25 13 -121 12 -144 -1z"/>
<path d="M4498 3261 c-29 -26 -33 -35 -36 -98 -4 -66 -2 -72 24 -102 36 -39
95 -55 157 -42 42 10 77 40 77 67 0 20 -5 18 -38 -16 -56 -56 -122 -30 -122
47 l0 33 85 0 85 0 0 30 c0 38 -24 86 -49 100 -11 5 -49 10 -85 10 -58 0 -69
-3 -98 -29z"/>
<path d="M4800 3261 c-18 -18 -30 -40 -30 -56 0 -51 13 -62 128 -106 49 -19
36 -59 -19 -59 -30 0 -79 34 -79 56 0 8 -7 14 -15 14 -11 0 -15 -12 -15 -45 0
-33 4 -45 15 -45 8 0 15 4 15 9 0 5 19 2 42 -6 83 -28 168 11 168 77 0 49 -16
67 -80 91 -70 25 -88 42 -70 64 20 24 59 18 92 -15 39 -39 48 -38 48 8 l0 37
-85 3 c-83 3 -86 2 -115 -27z"/>
</g>
</svg>
